<?xml version="1.0" encoding="UTF-8" standalone="no"?>
<!-- Created with Inkscape (http://www.inkscape.org/) -->

<svg
   xmlns:dc="http://purl.org/dc/elements/1.1/"
   xmlns:cc="http://creativecommons.org/ns#"
   xmlns:rdf="http://www.w3.org/1999/02/22-rdf-syntax-ns#"
   xmlns:svg="http://www.w3.org/2000/svg"
   xmlns="http://www.w3.org/2000/svg"
   xmlns:sodipodi="http://sodipodi.sourceforge.net/DTD/sodipodi-0.dtd"
   xmlns:inkscape="http://www.inkscape.org/namespaces/inkscape"
   width="135.41389mm"
   height="135.41389mm"
   viewBox="0 0 135.41389 135.41389"
   version="1.1"
   id="svg8"
   inkscape:version="0.92.4 (f8dce91, 2019-08-02)"
   sodipodi:docname="web-shell.svg">
  <defs
     id="defs2">
    <inkscape:path-effect
       effect="taper_stroke"
       id="path-effect4741"
       is_visible="true"
       stroke_width="16"
       attach_start="1.99999"
       end_offset="0.0076768354"
       smoothing="0.5"
       jointype="extrapolated"
       miter_limit="100" />
    <inkscape:path-effect
       effect="taper_stroke"
       id="path-effect4599"
       is_visible="true"
       stroke_width="32"
       attach_start="10.99999"
       end_offset="1e-05"
       smoothing="0.14"
       jointype="extrapolated"
       miter_limit="100" />
    <inkscape:path-effect
       effect="bspline"
       id="path-effect3742"
       is_visible="true"
       weight="33.333333"
       steps="2"
       helper_size="0"
       apply_no_weight="true"
       apply_with_weight="true"
       only_selected="false" />
    <inkscape:path-effect
       effect="bspline"
       id="path-effect3737"
       is_visible="true"
       weight="33.333333"
       steps="2"
       helper_size="0"
       apply_no_weight="true"
       apply_with_weight="true"
       only_selected="false" />
    <inkscape:path-effect
       effect="bspline"
       id="path-effect3733"
       is_visible="true"
       weight="10"
       steps="4"
       helper_size="0"
       apply_no_weight="true"
       apply_with_weight="true"
       only_selected="false" />
    <inkscape:path-effect
       effect="taper_stroke"
       id="path-effect3731"
       is_visible="true"
       stroke_width="20"
       attach_start="0.99999"
       end_offset="1e-07"
       smoothing="50"
       jointype="extrapolated"
       miter_limit="2000" />
    <inkscape:path-effect
       effect="powerstroke"
       id="path-effect3729"
       is_visible="true"
       offset_points="0.2,0.66145831 | 7.5,0.66145831 | 14.8,0.66145831"
       sort_points="true"
       interpolator_type="CubicBezierFit"
       interpolator_beta="0.2"
       start_linecap_type="butt"
       linejoin_type="extrp_arc"
       miter_limit="4"
       end_linecap_type="peak" />
    <inkscape:path-effect
       effect="taper_stroke"
       id="path-effect3727"
       is_visible="true"
       stroke_width="5"
       attach_start="0.2"
       end_offset="0.2"
       smoothing="0.5"
       jointype="extrapolated"
       miter_limit="100" />
    <inkscape:path-effect
       effect="spiro"
       id="path-effect3723"
       is_visible="true" />
  </defs>
  <sodipodi:namedview
     id="base"
     pagecolor="#ffffff"
     bordercolor="#666666"
     borderopacity="1.0"
     inkscape:pageopacity="0.0"
     inkscape:pageshadow="2"
     inkscape:zoom="0.45254834"
     inkscape:cx="656.36587"
     inkscape:cy="-395.58252"
     inkscape:document-units="mm"
     inkscape:current-layer="g4779"
     showgrid="true"
     inkscape:window-width="1623"
     inkscape:window-height="1026"
     inkscape:window-x="57"
     inkscape:window-y="24"
     inkscape:window-maximized="1"
     inkscape:snap-grids="true"
     inkscape:snap-bbox="true"
     inkscape:bbox-paths="true"
     inkscape:bbox-nodes="true"
     fit-margin-top="0"
     fit-margin-left="0"
     fit-margin-right="0"
     fit-margin-bottom="0">
    <inkscape:grid
       type="xygrid"
       id="grid89"
       originx="-2357.53"
       originy="-1433.4728" />
  </sodipodi:namedview>
  <metadata
     id="metadata5">
    <rdf:RDF>
      <cc:Work
         rdf:about="">
        <dc:format>image/svg+xml</dc:format>
        <dc:type
           rdf:resource="http://purl.org/dc/dcmitype/StillImage" />
        <dc:title></dc:title>
      </cc:Work>
    </rdf:RDF>
  </metadata>
  <g
     inkscape:label="Layer 1"
     inkscape:groupmode="layer"
     id="layer1"
     transform="translate(-2357.53,1271.8867)">
    <g
       id="g4697"
       transform="translate(411.2381,321.27976)"
       style="stroke-width:16;stroke-miterlimit:4;stroke-dasharray:none">
      <g
         id="g4717"
         transform="translate(252.4881,-243.41667)">
        <g
           transform="matrix(3.7116193,0.19971693,-0.19971693,3.7116193,192.29399,-576.08885)"
           id="g4774"
           style="stroke-width:15.58448219">
          <g
             id="g4779"
             transform="translate(216.03698,-654.97311)">
            <rect
               style="fill:#ffffff;stroke:#000000;stroke-width:1.05349612;stroke-linecap:round;stroke-miterlimit:4;stroke-dasharray:none"
               id="rect85"
               width="54.09845"
               height="39.862015"
               x="264.77261"
               y="659.8999"
               transform="rotate(-3.0800351)"
               ry="2.8852532"
               inkscape:export-filename="/home/zocky/src/app-img/static/icon.png"
               inkscape:export-xdpi="49.560001"
               inkscape:export-ydpi="49.560001" />
            <rect
               style="fill:#cadafb;fill-opacity:1;stroke:#000000;stroke-width:0;stroke-linecap:round;stroke-miterlimit:4;stroke-dasharray:none"
               id="rect87"
               width="42.709301"
               height="28.472879"
               x="270.46683"
               y="665.59448"
               transform="rotate(-3.0800353)"
               ry="0"
               inkscape:export-filename="/home/zocky/src/app-img/static/icon.png"
               inkscape:export-xdpi="49.560001"
               inkscape:export-ydpi="49.560001" />
            <path
               style="fill:#00cc00;stroke:#000000;stroke-width:0;stroke-linecap:round;stroke-miterlimit:4;stroke-dasharray:none"
               d="m 10560.785,-1183.0548 v -24.7401 l 4.788,-9.0489 c 21.751,-41.1073 49.62,-73.7601 79.587,-93.2465 13.436,-8.7371 29.78,-15.6883 44.531,-18.94 7.933,-1.7488 31.243,-2.4238 41.208,-1.1935 16.843,2.0794 34.191,6.6706 52.542,13.9049 8.379,3.3032 14.364,6.0379 49.939,22.8192 25.666,12.1071 35.656,15.1694 49.671,15.2256 7.802,0.031 10.241,-0.2619 14.538,-1.7472 9.928,-3.432 15.079,-7.6648 28.727,-23.6059 32.46,-37.9137 64.042,-60.4606 93.063,-66.4395 6.793,-1.3995 9.814,-1.6152 17.578,-1.2547 18.964,0.8805 31.003,6.5838 47.811,22.6495 20.26,19.3642 46.98,56.7852 70.454,98.6674 l 4.001,7.1383 v 42.2758 42.2757 h -299.219 -299.219 z"
               id="path907"
               inkscape:connector-curvature="0"
               transform="matrix(0.07107935,-0.00382468,0.00382468,0.07107935,-438.80159,801.19382)"
               inkscape:export-filename="/home/zocky/src/app-img/static/icon.png"
               inkscape:export-xdpi="49.560001"
               inkscape:export-ydpi="49.560001" />
            <rect
               style="fill:none;stroke-width:4.30456018;stroke-linecap:round;stroke-miterlimit:4;stroke-dasharray:none"
               id="rect4802"
               width="220.66475"
               height="220.66475"
               x="-192.92876"
               y="218.3924"
               transform="rotate(-3.0800351)"
               inkscape:export-filename="/home/zocky/src/shell2/public/web-shell-logo.png"
               inkscape:export-xdpi="12.387094"
               inkscape:export-ydpi="12.387094" />
            <g
               id="g4807"
               transform="translate(-272.21321,-3.9594)"
               inkscape:export-filename="/home/zocky/src/shell2/public/web-shell-logo.png"
               inkscape:export-xdpi="12.387094"
               inkscape:export-ydpi="12.387094">
              <path
                 style="fill:#ffcc00;stroke-width:15.58448219;stroke-linecap:round;stroke-miterlimit:4;stroke-dasharray:none"
                 d="m 285.52543,409.28843 c -6.86321,-3.29117 -19.74346,-5.30573 -27.31613,-12.31667 -27.49855,-16.6715 -21.40396,-9.13615 -67.14755,7.9411 -13.56965,4.78765 -23.35739,4.50493 -38.35922,-1.10796 -14.41328,-5.39271 -29.19997,-19.42528 -37.21954,-35.32133 -7.95193,-15.76203 -8.94571,-41.73006 -2.27364,-59.41181 14.41512,-38.2017 61.25418,-63.8331 102.6954,-56.19725 58.86727,10.84672 100.64034,71.63777 90.67814,131.96113 -1.52892,9.25796 -4.08464,19.89359 -5.67937,23.63473 l -2.89954,6.80206 z"
                 id="path4768"
                 inkscape:connector-curvature="0"
                 sodipodi:nodetypes="cccccsssccc" />
              <path
                 transform="rotate(63.846766,39.103619,49.363805)"
                 d="m 352.1793,76.516328 c 7.42889,3.731766 15.81504,4.137405 23.19066,1.70486 8.36985,-2.730557 14.06871,-9.09369 16.42101,-15.845503 1.97182,-5.884938 1.03573,-11.38337 -0.76501,-15.237935 0,0 0,-3e-6 0,-3e-6 -1.96227,-4.251786 -5.12684,-6.480475 -7.14037,-7.470838 -2.11334,-1.039453 -3.38963,-1.106058 -3.38963,-1.106058 0,0 1.08459,0.703611 2.3781,2.377877 1.28792,1.667036 2.68188,4.356399 2.81344,7.688254 0,1e-6 0,3e-6 0,3e-6 0.13938,3.127084 -0.75053,6.720441 -2.88714,9.489194 -2.42296,3.333582 -6.66515,5.651201 -11.03226,6.227251 -4.1494,0.565874 -8.70771,-0.239038 -12.37828,-2.110251 -7e-5,-3.7e-5 -1.5e-4,-7.4e-5 -2.2e-4,-1.11e-4 -2.89459,-1.461325 -5.16297,-3.431192 -6.95595,-5.818151 -1.79298,-2.386959 -3.09298,-5.207966 -3.84218,-8.277751 -1.49839,-6.139569 -0.68521,-13.215846 2.36029,-18.95617 2.24372,-4.229074 5.25142,-7.580365 8.83114,-10.188779 3.57972,-2.608415 7.74621,-4.457322 12.21557,-5.491742 8.93872,-2.068839 19.02758,-0.782524 27.30639,3.788638 11.63501,6.424294 18.72935,17.178966 21.45297,29.503929 2.72363,12.324963 0.82953,26.052949 -5.63285,37.379081 -8.76872,15.368273 -23.25905,24.730757 -39.61304,28.200537 -16.35398,3.46979 -34.4048,0.81924 -49.33367,-7.936 C 306.47241,92.879888 294.48569,73.998226 290.17159,52.916681 285.8575,31.835137 289.42739,8.7203093 300.9135,-10.41327 c 14.82489,-24.695294 38.80754,-39.690611 65.37097,-44.953779 26.56344,-5.263168 55.54116,-0.596717 79.52795,14.094901 13.44782,8.236634 25.20158,19.249991 34.44018,32.0855073 0.10131,0.140744 6.7211,-4.3555163 6.7211,-4.3555163 0,0 6.39216,-4.814539 6.26487,-4.991383 -10.45987,-14.53227 -23.74936,-26.999485 -39.06928,-36.382751 -27.57329,-16.888313 -60.50779,-22.186166 -90.99454,-16.14565 -30.48674,6.040515 -58.69222,23.616868 -75.97924,52.413592 -13.64278,22.726142 -17.81521,49.771888 -12.69907,74.772769 5.11614,25.000882 19.73222,48.1235 43.58768,62.11386 18.52819,10.86611 40.47997,14.08633 60.74859,9.78598 20.26861,-4.30034 39.02089,-16.34889 50.18928,-35.92288 8.52038,-14.933026 10.94637,-32.526882 7.35892,-48.760799 C 432.79346,27.106665 422.94557,12.06542 407.0387,3.2824068 c -11.89428,-6.5674509 -25.8073,-8.3418165 -38.64801,-5.3698726 -6.42036,1.48597201 -12.58796,4.1828224 -18.03031,8.1484721 -5.44235,3.9656497 -10.1447,9.2167317 -13.5426,15.6212777 -4.96886,9.365582 -6.21865,20.215593 -3.77008,30.248428 1.22428,5.016418 3.40025,9.843142 6.59305,14.09366 3.19279,4.250518 7.42,7.907875 12.53811,10.491735 1.4e-4,7.4e-5 2.9e-4,1.48e-4 4.4e-4,2.21e-4 z"
                 sodipodi:t0="0.45997888"
                 sodipodi:argument="-24.504292"
                 sodipodi:radius="130.11174"
                 sodipodi:revolution="3.820955"
                 sodipodi:expansion="3"
                 sodipodi:cy="48.439339"
                 sodipodi:cx="372.5737"
                 id="path4770"
                 style="fill:#000000;fill-rule:nonzero;stroke:none;stroke-width:15.58448219;stroke-linecap:round;stroke-miterlimit:4;stroke-dasharray:none"
                 sodipodi:type="spiral"
                 inkscape:path-effect="#path-effect4741" />
              <path
                 transform="matrix(-1.2636006,-0.27858995,0.29806104,-1.1810547,788.10275,579.94607)"
                 d="m 395.72373,42.630489 c 22.41761,-0.459361 44.34098,8.633441 60.32427,24.267248"
                 sodipodi:t0="0.97274333"
                 sodipodi:argument="-23.46645"
                 sodipodi:radius="87.351646"
                 sodipodi:revolution="4.6244168"
                 sodipodi:expansion="3"
                 sodipodi:cy="122.74027"
                 sodipodi:cx="388.87717"
                 id="path4772"
                 style="fill:none;fill-rule:evenodd;stroke:#000000;stroke-width:12.41636467;stroke-miterlimit:4;stroke-dasharray:none"
                 sodipodi:type="spiral" />
            </g>
            <rect
               style="fill:#ffffff;stroke:#000000;stroke-width:2.15227985;stroke-linecap:round;stroke-miterlimit:4;stroke-dasharray:none"
               id="rect4809"
               width="131.56252"
               height="174.33308"
               x="-458.3259"
               y="-315.3465"
               ry="11.164188"
               transform="rotate(176.91997)"
               inkscape:export-xdpi="12.387094"
               inkscape:export-ydpi="12.387094" />
            <g
               aria-label="♠"
               transform="matrix(47.015234,-2.5298237,2.5298237,47.015234,-3339.829,-7526.1545)"
               style="font-style:normal;font-weight:normal;font-size:2.84728694px;line-height:1.25;font-family:sans-serif;letter-spacing:0px;word-spacing:0px;fill:#000000;fill-opacity:1;stroke:none;stroke-width:0.02356119"
               id="text4868"
               inkscape:export-xdpi="12.387094"
               inkscape:export-ydpi="12.387094">
              <path
                 d="m 70.584055,167.23744 q 0.130686,0.23218 0.430986,0.6159 0.329495,0.38649 0.337837,0.46574 0.05422,0.11817 0.05422,0.2294 v 0.0556 q 0,0.23217 -0.225225,0.36564 -0.07368,0.0306 -0.162662,0.0306 -0.214103,0 -0.346179,-0.30726 h -0.05839 v 0.0167 q 0,0.39345 0.115393,0.60199 h -0.298909 v -0.008 q 0.118173,-0.20994 0.118173,-0.60617 l -0.0042,-0.004 h -0.05283 l -0.06534,0.12235 q -0.118174,0.18491 -0.294739,0.18491 -0.259982,0 -0.365643,-0.29057 l -0.01251,-0.10149 v -0.064 q 0,-0.25442 0.259981,-0.53664 0.437938,-0.53665 0.561672,-0.76605 l 0.0042,-0.004 z"
                 style="stroke-width:0.02356119"
                 id="path4870"
                 inkscape:connector-curvature="0" />
            </g>
            <g
               inkscape:export-ydpi="12.387094"
               inkscape:export-xdpi="12.387094"
               id="g4875"
               style="font-style:normal;font-weight:normal;font-size:2.84728694px;line-height:1.25;font-family:sans-serif;letter-spacing:0px;word-spacing:0px;fill:#000000;fill-opacity:1;stroke:none;stroke-width:0.11348008"
               transform="matrix(9.7614921,-0.52525218,0.52525218,9.7614921,-424.10339,-1462.1948)"
               aria-label="♠">
              <path
                 inkscape:connector-curvature="0"
                 id="path4873"
                 style="stroke-width:0.11348008"
                 d="m 70.584055,167.23744 q 0.130686,0.23218 0.430986,0.6159 0.329495,0.38649 0.337837,0.46574 0.05422,0.11817 0.05422,0.2294 v 0.0556 q 0,0.23217 -0.225225,0.36564 -0.07368,0.0306 -0.162662,0.0306 -0.214103,0 -0.346179,-0.30726 h -0.05839 v 0.0167 q 0,0.39345 0.115393,0.60199 h -0.298909 v -0.008 q 0.118173,-0.20994 0.118173,-0.60617 l -0.0042,-0.004 h -0.05283 l -0.06534,0.12235 q -0.118174,0.18491 -0.294739,0.18491 -0.259982,0 -0.365643,-0.29057 l -0.01251,-0.10149 v -0.064 q 0,-0.25442 0.259981,-0.53664 0.437938,-0.53665 0.561672,-0.76605 l 0.0042,-0.004 z" />
            </g>
            <g
               aria-label="♠"
               transform="matrix(-9.7614921,0.52525218,-0.52525218,-9.7614921,1232.5792,1875.712)"
               style="font-style:normal;font-weight:normal;font-size:2.84728694px;line-height:1.25;font-family:sans-serif;letter-spacing:0px;word-spacing:0px;fill:#000000;fill-opacity:1;stroke:none;stroke-width:0.11348008"
               id="g4879"
               inkscape:export-xdpi="12.387094"
               inkscape:export-ydpi="12.387094">
              <path
                 d="m 70.584055,167.23744 q 0.130686,0.23218 0.430986,0.6159 0.329495,0.38649 0.337837,0.46574 0.05422,0.11817 0.05422,0.2294 v 0.0556 q 0,0.23217 -0.225225,0.36564 -0.07368,0.0306 -0.162662,0.0306 -0.214103,0 -0.346179,-0.30726 h -0.05839 v 0.0167 q 0,0.39345 0.115393,0.60199 h -0.298909 v -0.008 q 0.118173,-0.20994 0.118173,-0.60617 l -0.0042,-0.004 h -0.05283 l -0.06534,0.12235 q -0.118174,0.18491 -0.294739,0.18491 -0.259982,0 -0.365643,-0.29057 l -0.01251,-0.10149 v -0.064 q 0,-0.25442 0.259981,-0.53664 0.437938,-0.53665 0.561672,-0.76605 l 0.0042,-0.004 z"
                 style="stroke-width:0.11348008"
                 id="path4877"
                 inkscape:connector-curvature="0" />
            </g>
            <circle
               style="fill:#ffcc00;stroke:#000000;stroke-width:0;stroke-linecap:round;stroke-miterlimit:4;stroke-dasharray:none"
               id="path905"
               cx="278.78763"
               cy="672.06671"
               transform="rotate(-3.0800352)"
               r="4.0683031"
               inkscape:export-filename="/home/zocky/src/app-img/static/icon.png"
               inkscape:export-xdpi="49.560001"
               inkscape:export-ydpi="49.560001" />
            <rect
               style="fill:none;fill-opacity:1;stroke:#000000;stroke-width:0.30608335;stroke-linecap:round;stroke-miterlimit:4;stroke-dasharray:none"
               id="rect909"
               width="42.709305"
               height="28.47287"
               x="270.46722"
               y="665.59442"
               transform="rotate(-3.0800351)"
               inkscape:export-filename="/home/zocky/src/app-img/static/icon.png"
               inkscape:export-xdpi="49.560001"
               inkscape:export-ydpi="49.560001" />
            <circle
               style="fill:#ffffff;fill-opacity:1;stroke:#bfbfbf;stroke-width:0.30608338;stroke-linecap:round;stroke-miterlimit:4;stroke-dasharray:none"
               id="path843"
               cx="171.25705"
               cy="452.4928"
               r="18.062496"
               transform="rotate(-3.0800337)" />
            <g
               aria-label="?"
               transform="rotate(-3.0800352)"
               style="font-style:normal;font-variant:normal;font-weight:normal;font-stretch:normal;font-size:36.38477325px;line-height:1.25;font-family:FreeMono;-inkscape-font-specification:FreeMono;letter-spacing:0px;word-spacing:0px;fill:#003399;fill-opacity:1;stroke:none;stroke-width:1.10933733"
               id="text847">
              <path
                 d="m 173.6627,459.48041 c 0.0364,-3.16548 0.36385,-4.00232 2.36501,-5.71241 2.80163,-2.47416 3.71125,-4.07509 3.71125,-6.51287 0,-4.76641 -3.52932,-8.33212 -8.18657,-8.33212 -2.58332,0 -5.0211,1.16432 -6.54926,3.16548 -1.05516,1.34624 -1.56455,2.8744 -1.74647,5.27579 h 4.83917 c 0.32747,-2.47416 1.38263,-3.63848 3.3474,-3.63848 2.00117,0 3.45656,1.41901 3.45656,3.38379 0,1.12793 -0.54578,2.1467 -1.63732,3.0927 -3.60209,2.94717 -4.47533,4.76641 -4.43894,9.27812 z m -4.83917,6.80395 h 4.83917 v -4.65725 h -4.83917 z"
                 style="font-style:normal;font-variant:normal;font-weight:600;font-stretch:normal;font-size:36.38477325px;font-family:'URW Gothic L';-inkscape-font-specification:'URW Gothic L Semi-Bold';fill:#000000;stroke:none;stroke-width:1.10933733"
                 id="path4709" />
            </g>
          </g>
        </g>
      </g>
    </g>
  </g>
</svg>
